<svg width="690" height="690" viewBox="0 0 690 690" fill="none" xmlns="http://www.w3.org/2000/svg">
<circle cx="345" cy="345" r="345" fill="#00006D"/>
<path d="M150 290c34 0 57 28 91 28s57-28 91-28 57 28 91 28 57-28 91-28 35 11 41 18" stroke="white" stroke-width="34" stroke-linecap="round" stroke-linejoin="round"/>
<path d="M150 375c34 0 57 28 91 28s57-28 91-28 57 28 91 28 57-28 91-28 35 11 41 18" stroke="white" stroke-width="34" stroke-linecap="round" stroke-linejoin="round"/>
<path d="M150 460c34 0 57 28 91 28s57-28 91-28 57 28 91 28 57-28 91-28 35 11 41 18" stroke="white" stroke-width="34" stroke-linecap="round" stroke-linejoin="round"/>
</svg>
